<mxfile host="app.diagrams.net" agent="Mozilla/5.0 (Windows NT 10.0; Win64; x64) AppleWebKit/537.36 (KHTML, like Gecko) Chrome/131.0.0.0 Safari/537.36" version="25.0.3">
  <diagram name="페이지-1" id="p9l4lwZX78hkj1rfnjHu">
    <mxGraphModel dx="1193" dy="698" grid="1" gridSize="10" guides="1" tooltips="1" connect="1" arrows="1" fold="1" page="0" pageScale="1" pageWidth="1169" pageHeight="827" math="0" shadow="0">
      <root>
        <mxCell id="0" />
        <mxCell id="1" parent="0" />
        <mxCell id="he6p2fdSP1sN6fhDM60t-1" value="VPC" style="sketch=0;outlineConnect=0;gradientColor=none;html=1;whiteSpace=wrap;fontSize=12;fontStyle=0;shape=mxgraph.aws4.group;grIcon=mxgraph.aws4.group_vpc;strokeColor=#879196;fillColor=none;verticalAlign=top;align=left;spacingLeft=30;fontColor=#879196;dashed=0;movable=0;resizable=0;rotatable=0;deletable=0;editable=0;locked=1;connectable=0;" vertex="1" parent="1">
          <mxGeometry x="540" y="40" width="700" height="400" as="geometry" />
        </mxCell>
        <mxCell id="he6p2fdSP1sN6fhDM60t-15" value="Region" style="sketch=0;outlineConnect=0;gradientColor=none;html=1;whiteSpace=wrap;fontSize=12;fontStyle=0;shape=mxgraph.aws4.group;grIcon=mxgraph.aws4.group_region;strokeColor=#879196;fillColor=none;verticalAlign=top;align=left;spacingLeft=30;fontColor=#879196;dashed=1;movable=1;resizable=1;rotatable=1;deletable=1;editable=1;locked=0;connectable=1;" vertex="1" parent="1">
          <mxGeometry x="801" y="85.00000000000001" width="380" height="135" as="geometry" />
        </mxCell>
        <mxCell id="he6p2fdSP1sN6fhDM60t-46" style="edgeStyle=orthogonalEdgeStyle;rounded=0;orthogonalLoop=1;jettySize=auto;html=1;exitX=1;exitY=0.5;exitDx=0;exitDy=0;entryX=0;entryY=0.5;entryDx=0;entryDy=0;entryPerimeter=0;" edge="1" parent="1" source="he6p2fdSP1sN6fhDM60t-9" target="he6p2fdSP1sN6fhDM60t-11">
          <mxGeometry relative="1" as="geometry">
            <mxPoint x="1283" y="161" as="targetPoint" />
            <Array as="points">
              <mxPoint x="1062" y="158" />
              <mxPoint x="1103" y="158" />
              <mxPoint x="1103" y="162" />
              <mxPoint x="1101" y="162" />
              <mxPoint x="1101" y="158" />
            </Array>
          </mxGeometry>
        </mxCell>
        <mxCell id="he6p2fdSP1sN6fhDM60t-9" value="Auto Scaling group" style="points=[[0,0],[0.25,0],[0.5,0],[0.75,0],[1,0],[1,0.25],[1,0.5],[1,0.75],[1,1],[0.75,1],[0.5,1],[0.25,1],[0,1],[0,0.75],[0,0.5],[0,0.25]];outlineConnect=0;gradientColor=none;html=1;whiteSpace=wrap;fontSize=12;fontStyle=0;container=1;pointerEvents=0;collapsible=0;recursiveResize=0;shape=mxgraph.aws4.groupCenter;grIcon=mxgraph.aws4.group_auto_scaling_group;grStroke=1;strokeColor=#D86613;fillColor=none;verticalAlign=top;align=center;fontColor=#D86613;dashed=1;spacingTop=25;" vertex="1" parent="1">
          <mxGeometry x="873" y="110.95" width="189" height="99.1" as="geometry" />
        </mxCell>
        <mxCell id="he6p2fdSP1sN6fhDM60t-41" value="Scaled Instances" style="outlineConnect=0;dashed=0;verticalLabelPosition=bottom;verticalAlign=top;align=center;html=1;shape=mxgraph.aws3.ec2;fillColor=#f5f5f5;fontColor=#333333;strokeColor=#666666;fontSize=10;" vertex="1" parent="he6p2fdSP1sN6fhDM60t-9">
          <mxGeometry x="118" y="52.05" width="50" height="27.95" as="geometry" />
        </mxCell>
        <mxCell id="he6p2fdSP1sN6fhDM60t-39" value="API server(EC2)" style="outlineConnect=0;dashed=0;verticalLabelPosition=bottom;verticalAlign=top;align=center;html=1;shape=mxgraph.aws3.ec2;fillColor=#F58534;gradientColor=none;fontSize=10;" vertex="1" parent="he6p2fdSP1sN6fhDM60t-9">
          <mxGeometry x="20" y="52.05" width="50" height="27.95" as="geometry" />
        </mxCell>
        <mxCell id="he6p2fdSP1sN6fhDM60t-11" value="RDS" style="outlineConnect=0;dashed=0;verticalLabelPosition=bottom;verticalAlign=top;align=center;html=1;shape=mxgraph.aws3.rds_db_instance;fillColor=#2E73B8;gradientColor=none;" vertex="1" parent="1">
          <mxGeometry x="1106" y="124.9" width="49.5" height="66" as="geometry" />
        </mxCell>
        <mxCell id="he6p2fdSP1sN6fhDM60t-69" style="edgeStyle=orthogonalEdgeStyle;rounded=0;orthogonalLoop=1;jettySize=auto;html=1;" edge="1" parent="1" source="he6p2fdSP1sN6fhDM60t-35">
          <mxGeometry relative="1" as="geometry">
            <mxPoint x="650" y="241.04999999999995" as="targetPoint" />
          </mxGeometry>
        </mxCell>
        <mxCell id="he6p2fdSP1sN6fhDM60t-35" value="Internet Gateway" style="sketch=0;outlineConnect=0;fontColor=#232F3E;gradientColor=none;fillColor=#8C4FFF;strokeColor=none;dashed=0;verticalLabelPosition=bottom;verticalAlign=top;align=center;html=1;fontSize=12;fontStyle=0;aspect=fixed;pointerEvents=1;shape=mxgraph.aws4.internet_gateway;" vertex="1" parent="1">
          <mxGeometry x="500" y="202.05" width="78" height="78" as="geometry" />
        </mxCell>
        <mxCell id="he6p2fdSP1sN6fhDM60t-50" style="edgeStyle=orthogonalEdgeStyle;rounded=0;orthogonalLoop=1;jettySize=auto;html=1;entryX=0;entryY=0.5;entryDx=0;entryDy=0;" edge="1" parent="1" source="he6p2fdSP1sN6fhDM60t-4" target="he6p2fdSP1sN6fhDM60t-9">
          <mxGeometry relative="1" as="geometry">
            <Array as="points">
              <mxPoint x="750" y="241" />
              <mxPoint x="750" y="160" />
              <mxPoint x="873" y="160" />
            </Array>
          </mxGeometry>
        </mxCell>
        <mxCell id="he6p2fdSP1sN6fhDM60t-55" style="edgeStyle=orthogonalEdgeStyle;rounded=0;orthogonalLoop=1;jettySize=auto;html=1;entryX=0;entryY=0.5;entryDx=0;entryDy=0;" edge="1" parent="1" source="he6p2fdSP1sN6fhDM60t-4" target="he6p2fdSP1sN6fhDM60t-64">
          <mxGeometry relative="1" as="geometry">
            <mxPoint x="850" y="330" as="targetPoint" />
            <Array as="points">
              <mxPoint x="750" y="241" />
              <mxPoint x="750" y="336" />
            </Array>
          </mxGeometry>
        </mxCell>
        <mxCell id="he6p2fdSP1sN6fhDM60t-4" value="&lt;div&gt;&lt;br&gt;&lt;/div&gt;&lt;div&gt;&lt;br&gt;&lt;/div&gt;&lt;div&gt;&lt;br&gt;&lt;/div&gt;&lt;div&gt;&lt;br&gt;&lt;/div&gt;&lt;div&gt;&lt;br&gt;&lt;/div&gt;&lt;div&gt;&lt;br&gt;&lt;/div&gt;&lt;div&gt;&lt;br&gt;&lt;/div&gt;&lt;div&gt;ALB&lt;/div&gt;" style="points=[];aspect=fixed;html=1;align=center;shadow=0;dashed=0;fillColor=#FF6A00;strokeColor=none;shape=mxgraph.alibaba_cloud.alb_application_load_balancer_01;" vertex="1" parent="1">
          <mxGeometry x="640" y="207.55" width="78.99" height="67" as="geometry" />
        </mxCell>
        <mxCell id="he6p2fdSP1sN6fhDM60t-62" value="Region" style="sketch=0;outlineConnect=0;gradientColor=none;html=1;whiteSpace=wrap;fontSize=12;fontStyle=0;shape=mxgraph.aws4.group;grIcon=mxgraph.aws4.group_region;strokeColor=#879196;fillColor=none;verticalAlign=top;align=left;spacingLeft=30;fontColor=#879196;dashed=1;movable=1;resizable=1;rotatable=1;deletable=1;editable=1;locked=0;connectable=1;" vertex="1" parent="1">
          <mxGeometry x="801" y="260" width="380" height="135" as="geometry" />
        </mxCell>
        <mxCell id="he6p2fdSP1sN6fhDM60t-63" style="edgeStyle=orthogonalEdgeStyle;rounded=0;orthogonalLoop=1;jettySize=auto;html=1;exitX=1;exitY=0.5;exitDx=0;exitDy=0;entryX=0;entryY=0.5;entryDx=0;entryDy=0;entryPerimeter=0;" edge="1" parent="1" source="he6p2fdSP1sN6fhDM60t-64" target="he6p2fdSP1sN6fhDM60t-67">
          <mxGeometry relative="1" as="geometry">
            <mxPoint x="1283" y="336" as="targetPoint" />
            <Array as="points">
              <mxPoint x="1062" y="333" />
              <mxPoint x="1103" y="333" />
              <mxPoint x="1103" y="337" />
              <mxPoint x="1101" y="337" />
              <mxPoint x="1101" y="333" />
            </Array>
          </mxGeometry>
        </mxCell>
        <mxCell id="he6p2fdSP1sN6fhDM60t-64" value="Auto Scaling group" style="points=[[0,0],[0.25,0],[0.5,0],[0.75,0],[1,0],[1,0.25],[1,0.5],[1,0.75],[1,1],[0.75,1],[0.5,1],[0.25,1],[0,1],[0,0.75],[0,0.5],[0,0.25]];outlineConnect=0;gradientColor=none;html=1;whiteSpace=wrap;fontSize=12;fontStyle=0;container=1;pointerEvents=0;collapsible=0;recursiveResize=0;shape=mxgraph.aws4.groupCenter;grIcon=mxgraph.aws4.group_auto_scaling_group;grStroke=1;strokeColor=#D86613;fillColor=none;verticalAlign=top;align=center;fontColor=#D86613;dashed=1;spacingTop=25;" vertex="1" parent="1">
          <mxGeometry x="873" y="285.95" width="189" height="99.1" as="geometry" />
        </mxCell>
        <mxCell id="he6p2fdSP1sN6fhDM60t-65" value="Scaled Instances" style="outlineConnect=0;dashed=0;verticalLabelPosition=bottom;verticalAlign=top;align=center;html=1;shape=mxgraph.aws3.ec2;fillColor=#f5f5f5;fontColor=#333333;strokeColor=#666666;fontSize=10;" vertex="1" parent="he6p2fdSP1sN6fhDM60t-64">
          <mxGeometry x="118" y="52.05" width="50" height="27.95" as="geometry" />
        </mxCell>
        <mxCell id="he6p2fdSP1sN6fhDM60t-66" value="API server(EC2)" style="outlineConnect=0;dashed=0;verticalLabelPosition=bottom;verticalAlign=top;align=center;html=1;shape=mxgraph.aws3.ec2;fillColor=#F58534;gradientColor=none;fontSize=10;" vertex="1" parent="he6p2fdSP1sN6fhDM60t-64">
          <mxGeometry x="20" y="52.05" width="50" height="27.95" as="geometry" />
        </mxCell>
        <mxCell id="he6p2fdSP1sN6fhDM60t-67" value="RDS" style="outlineConnect=0;dashed=0;verticalLabelPosition=bottom;verticalAlign=top;align=center;html=1;shape=mxgraph.aws3.rds_db_instance;fillColor=#2E73B8;gradientColor=none;" vertex="1" parent="1">
          <mxGeometry x="1106" y="299.9" width="49.5" height="66" as="geometry" />
        </mxCell>
        <mxCell id="he6p2fdSP1sN6fhDM60t-71" value="" style="points=[];aspect=fixed;html=1;align=center;shadow=0;dashed=0;fillColor=#FF6A00;strokeColor=none;shape=mxgraph.alibaba_cloud.user;" vertex="1" parent="1">
          <mxGeometry x="296" y="202.5" width="75" height="75" as="geometry" />
        </mxCell>
        <mxCell id="he6p2fdSP1sN6fhDM60t-75" value="" style="endArrow=classic;html=1;rounded=0;" edge="1" parent="1" source="he6p2fdSP1sN6fhDM60t-76" target="he6p2fdSP1sN6fhDM60t-35">
          <mxGeometry width="50" height="50" relative="1" as="geometry">
            <mxPoint x="370" y="239.33" as="sourcePoint" />
            <mxPoint x="450" y="239.23000000000002" as="targetPoint" />
          </mxGeometry>
        </mxCell>
        <mxCell id="he6p2fdSP1sN6fhDM60t-79" value="&lt;font style=&quot;font-size: 20px;&quot;&gt;User&lt;/font&gt;" style="text;html=1;align=center;verticalAlign=middle;whiteSpace=wrap;rounded=0;" vertex="1" parent="1">
          <mxGeometry x="296" y="40" width="60" height="30" as="geometry" />
        </mxCell>
        <mxCell id="he6p2fdSP1sN6fhDM60t-80" value="" style="endArrow=classic;html=1;rounded=0;" edge="1" parent="1" target="he6p2fdSP1sN6fhDM60t-76">
          <mxGeometry width="50" height="50" relative="1" as="geometry">
            <mxPoint x="370" y="239.33" as="sourcePoint" />
            <mxPoint x="500" y="241" as="targetPoint" />
          </mxGeometry>
        </mxCell>
        <mxCell id="he6p2fdSP1sN6fhDM60t-76" value="Token" style="outlineConnect=0;dashed=0;verticalLabelPosition=bottom;verticalAlign=top;align=center;html=1;shape=mxgraph.aws3.saml_token;fillColor=#D2D3D3;gradientColor=none;" vertex="1" parent="1">
          <mxGeometry x="420" y="222.72" width="30" height="34.55" as="geometry" />
        </mxCell>
      </root>
    </mxGraphModel>
  </diagram>
</mxfile>
